<svg fill="none" viewBox="0 0 24 24">
  <g clip-path="url(#a)">
    <path stroke="currentColor" d="M19.6 18.5a10.2 10.2 0 0 0-14-15"/>
    <path fill="currentColor" d="M10 10.5c-.9.8-1.8 1.6-1.8 2.7a.8.8 0 0 0 .9.8h3.2a.8.8 0 1 0 0-1.6h-2l.8-.7c1-1 2-2 2-3.3a2.4 2.4 0 1 0-4.8 0 .8.8 0 0 0 1.6 0 .8.8 0 0 1 1.6 0c0 .7-.8 1.4-1.5 2ZM14.6 12.4H16v.8c0 .2 0 .5.2.6.1.2.3.2.5.2s.3 0 .5-.2l.2-.6v-.8h.7c.1 0 .3 0 .4-.2l.3-.6-.3-.6a.6.6 0 0 0-.4-.2h-.7V10l-.2-.6a.6.6 0 0 0-.5-.2c-.2 0-.4 0-.5.2l-.2.6v.8h-.7v-4c0-.2 0-.5-.2-.6a.6.6 0 0 0-.5-.2c-.2 0-.4 0-.5.2l-.2.6v4.8c0 .2 0 .4.2.6l.5.2Z"/>
    <path fill="currentColor" d="m9.4 19.5 1.2-1.2a1.2 1.2 0 0 1 1.3-.2l1.4.6a1.2 1.2 0 0 1 .8 1v2.7a1.2 1.2 0 0 1-1.3 1.1C2.6 23 .6 14.3.2 11a1.2 1.2 0 0 1 1.2-1.3h2.5a1.2 1.2 0 0 1 1.1.7l.6 1.5a1.2 1.2 0 0 1-.3 1.2l-1.2 1.2s.7 4.7 5.3 5.2Z"/>
  </g>
  <defs>
    <clipPath id="a">
      <path fill="currentColor" d="M0 0h24v24H0z"/>
    </clipPath>
  </defs>
</svg>
